<svg width="79" height="105" viewBox="0 0 79 105" fill="none" xmlns="http://www.w3.org/2000/svg">
<path d="M79 39.5C79 60.9837 56.6937 85.2504 40.2566 104.13C39.8557 104.59 39.1489 104.59 38.7506 104.128C23.6989 86.6379 0 60.9556 0 39.5C0 17.6848 17.6848 0 39.5 0C61.3152 0 79 17.6848 79 39.5Z" fill="#222222"/>
<circle cx="39.5" cy="39.5" r="33.5" fill="#FFE9E9"/>
<path d="M29.6745 47.7676H35.3024L32.8721 58.0001H25.7094L29.6745 47.7676Z" fill="#FF5959"/>
<path d="M50.0116 47.7676H44.3837L46.8139 58.0001H53.9767L50.0116 47.7676Z" fill="#FF5959"/>
<path d="M58.6046 47.7676H52.9767L57.4069 58.0001H64.5697L58.6046 47.7676Z" fill="#FF5959"/>
<path d="M20.9651 47.7676H26.593L22.1628 58.0001H15L20.9651 47.7676Z" fill="#FF5959"/>
<path d="M42.2093 47.7676H37.2209L36.1977 58.0001H43.3605L42.2093 47.7676Z" fill="#FF5959"/>
<circle cx="43" cy="23" r="4" fill="#FF5959"/>
<path d="M39.1453 31.0808C39.977 30.2843 41.2973 30.3124 42.0939 31.1438L47.0856 36.3559C47.8819 37.1877 47.8529 38.5079 47.0212 39.3045C46.1895 40.1007 44.8698 40.0722 44.0733 39.2408L39.0816 34.0287C38.2854 33.197 38.3139 31.8774 39.1453 31.0808Z" fill="#FF5959" stroke="#FFE9E9" stroke-width="0.511628"/>
<path d="M33.571 52.481C32.1849 51.9105 31.5768 50.3472 32.2123 48.9896L35.9938 40.912C36.6295 39.5547 38.2681 38.9166 39.6541 39.4868C41.0403 40.0571 41.6494 41.6201 41.0141 42.9776L37.2327 51.0552C36.5971 52.4129 34.9573 53.0514 33.571 52.481Z" fill="#FF5959" stroke="#FFE9E9" stroke-width="0.8"/>
<mask id="path-11-outside-1_417_19611" maskUnits="userSpaceOnUse" x="29.8428" y="26.001" width="19" height="28" fill="black">
<rect fill="white" x="29.8428" y="26.001" width="19" height="28"/>
<path d="M39.9785 27.0176C41.4144 27.177 42.4355 28.4683 42.2598 29.9023L41.0879 39.4639L46.0352 43.167C46.3504 43.403 46.5836 43.7013 46.7334 44.0293C46.9536 44.3888 47.083 44.8102 47.083 45.2627V49.9844C47.083 51.2922 46.0227 52.3525 44.7148 52.3525C43.4072 52.3524 42.3467 51.2921 42.3467 49.9844V46.2002L36.8652 42.0967C36.6483 41.9343 36.4712 41.7418 36.332 41.5312C35.9209 41.0097 35.7103 40.3296 35.7979 39.6143L36.6924 32.3145L34.8018 33.5498L34.2168 37.6143C34.0834 38.5391 33.2235 39.191 32.2969 39.0703C31.3704 38.9494 30.7271 38.1016 30.8604 37.1768L31.5039 32.71C31.5057 32.6975 31.5087 32.6852 31.5107 32.6729C31.4958 32.1527 31.7451 31.64 32.2236 31.3271L38.2383 27.3984C38.395 27.2961 38.5642 27.2244 38.7383 27.1797C39.1214 27.0314 39.544 26.9694 39.9785 27.0176Z"/>
</mask>
<path d="M39.9785 27.0176C41.4144 27.177 42.4355 28.4683 42.2598 29.9023L41.0879 39.4639L46.0352 43.167C46.3504 43.403 46.5836 43.7013 46.7334 44.0293C46.9536 44.3888 47.083 44.8102 47.083 45.2627V49.9844C47.083 51.2922 46.0227 52.3525 44.7148 52.3525C43.4072 52.3524 42.3467 51.2921 42.3467 49.9844V46.2002L36.8652 42.0967C36.6483 41.9343 36.4712 41.7418 36.332 41.5312C35.9209 41.0097 35.7103 40.3296 35.7979 39.6143L36.6924 32.3145L34.8018 33.5498L34.2168 37.6143C34.0834 38.5391 33.2235 39.191 32.2969 39.0703C31.3704 38.9494 30.7271 38.1016 30.8604 37.1768L31.5039 32.71C31.5057 32.6975 31.5087 32.6852 31.5107 32.6729C31.4958 32.1527 31.7451 31.64 32.2236 31.3271L38.2383 27.3984C38.395 27.2961 38.5642 27.2244 38.7383 27.1797C39.1214 27.0314 39.544 26.9694 39.9785 27.0176Z" fill="#FF5959"/>
<path d="M39.9785 27.0176L40.0668 26.2225L40.0667 26.2224L39.9785 27.0176ZM42.2598 29.9023L41.4657 29.805L41.4657 29.805L42.2598 29.9023ZM41.0879 39.4639L40.2938 39.3665L40.2374 39.8266L40.6085 40.1043L41.0879 39.4639ZM46.0352 43.167L46.5146 42.5266L46.5145 42.5265L46.0352 43.167ZM46.7334 44.0293L46.0057 44.3616L46.0259 44.4058L46.0512 44.4472L46.7334 44.0293ZM47.083 45.2627L47.883 45.2627L47.883 45.2626L47.083 45.2627ZM47.083 49.9844L47.883 49.9844V49.9844H47.083ZM44.7148 52.3525L44.7147 53.1525L44.7148 53.1525L44.7148 52.3525ZM42.3467 49.9844L43.1467 49.9844V49.9844H42.3467ZM42.3467 46.2002H43.1467V45.7998L42.8261 45.5598L42.3467 46.2002ZM36.8652 42.0967L37.3447 41.4563L37.3447 41.4562L36.8652 42.0967ZM36.332 41.5312L36.9995 41.0902L36.981 41.0623L36.9603 41.036L36.332 41.5312ZM35.7979 39.6143L35.0038 39.517L35.0038 39.517L35.7979 39.6143ZM36.6924 32.3145L37.4864 32.4118L37.6958 30.7032L36.2548 31.6447L36.6924 32.3145ZM34.8018 33.5498L34.3642 32.8801L34.0614 33.0779L34.0099 33.4358L34.8018 33.5498ZM34.2168 37.6143L35.0086 37.7285L35.0086 37.7282L34.2168 37.6143ZM32.2969 39.0703L32.1934 39.8636L32.1935 39.8636L32.2969 39.0703ZM30.8604 37.1768L30.0685 37.0627L30.0685 37.0627L30.8604 37.1768ZM31.5039 32.71L30.7121 32.5959L30.7121 32.5959L31.5039 32.71ZM31.5107 32.6729L32.2999 32.8042L32.3126 32.7275L32.3104 32.6498L31.5107 32.6729ZM32.2236 31.3271L31.7861 30.6574L31.7859 30.6575L32.2236 31.3271ZM38.2383 27.3984L37.8008 26.7287L37.8008 26.7287L38.2383 27.3984ZM38.7383 27.1797L38.9374 27.9545L38.9831 27.9428L39.0271 27.9258L38.7383 27.1797ZM39.9785 27.0176L39.8902 27.8127C40.8834 27.923 41.5873 28.8131 41.4657 29.805L42.2598 29.9023L43.0538 29.9997C43.2838 28.1236 41.9453 26.431 40.0668 26.2225L39.9785 27.0176ZM42.2598 29.9023L41.4657 29.805L40.2938 39.3665L41.0879 39.4639L41.8819 39.5612L43.0538 29.9997L42.2598 29.9023ZM41.0879 39.4639L40.6085 40.1043L45.5558 43.8074L46.0352 43.167L46.5145 42.5265L41.5673 38.8234L41.0879 39.4639ZM46.0352 43.167L45.5557 43.8074C45.762 43.9618 45.9107 44.1535 46.0057 44.3616L46.7334 44.0293L47.4611 43.697C47.2566 43.2491 46.9388 42.8442 46.5146 42.5266L46.0352 43.167ZM46.7334 44.0293L46.0512 44.4472C46.1985 44.6875 46.283 44.9652 46.283 45.2628L47.083 45.2627L47.883 45.2626C47.8829 44.6551 47.7088 44.0901 47.4156 43.6114L46.7334 44.0293ZM47.083 45.2627H46.283V49.9844H47.083H47.883V45.2627H47.083ZM47.083 49.9844L46.283 49.9844C46.283 50.8504 45.5808 51.5525 44.7148 51.5525L44.7148 52.3525L44.7148 53.1525C46.4645 53.1525 47.883 51.734 47.883 49.9844L47.083 49.9844ZM44.7148 52.3525L44.7149 51.5525C43.8489 51.5524 43.1467 50.8502 43.1467 49.9844L42.3467 49.9844L41.5467 49.9844C41.5467 51.734 42.9654 53.1523 44.7147 53.1525L44.7148 52.3525ZM42.3467 49.9844H43.1467V46.2002H42.3467H41.5467V49.9844H42.3467ZM42.3467 46.2002L42.8261 45.5598L37.3447 41.4563L36.8652 42.0967L36.3858 42.7371L41.8672 46.8406L42.3467 46.2002ZM36.8652 42.0967L37.3447 41.4562C37.2041 41.351 37.0897 41.2268 36.9995 41.0902L36.332 41.5312L35.6646 41.9723C35.8526 42.2569 36.0926 42.5176 36.3858 42.7371L36.8652 42.0967ZM36.332 41.5312L36.9603 41.036C36.6766 40.6761 36.5312 40.2078 36.5919 39.7115L35.7979 39.6143L35.0038 39.517C34.8894 40.4514 35.1652 41.3433 35.7038 42.0265L36.332 41.5312ZM35.7979 39.6143L36.5919 39.7116L37.4864 32.4118L36.6924 32.3145L35.8983 32.2171L35.0038 39.517L35.7979 39.6143ZM36.6924 32.3145L36.2548 31.6447L34.3642 32.8801L34.8018 33.5498L35.2394 34.2195L37.13 32.9842L36.6924 32.3145ZM34.8018 33.5498L34.0099 33.4358L33.425 37.5003L34.2168 37.6143L35.0086 37.7282L35.5936 33.6638L34.8018 33.5498ZM34.2168 37.6143L33.425 37.5001C33.3541 37.9915 32.8932 38.3413 32.4002 38.277L32.2969 39.0703L32.1935 39.8636C33.5537 40.0408 34.8127 39.0867 35.0086 37.7285L34.2168 37.6143ZM32.2969 39.0703L32.4004 38.277C31.9161 38.2139 31.5825 37.7742 31.6522 37.2908L30.8604 37.1768L30.0685 37.0627C29.8717 38.429 30.8246 39.685 32.1934 39.8636L32.2969 39.0703ZM30.8604 37.1768L31.6522 37.2908L32.2957 32.824L31.5039 32.71L30.7121 32.5959L30.0685 37.0627L30.8604 37.1768ZM31.5039 32.71L32.2957 32.824C32.2944 32.8333 32.2932 32.8404 32.2925 32.844C32.2919 32.8474 32.2915 32.8494 32.2919 32.8473C32.292 32.8469 32.2921 32.8464 32.2922 32.8456C32.2924 32.8449 32.2926 32.8439 32.2928 32.8428C32.2932 32.8407 32.2938 32.8376 32.2945 32.8341C32.2958 32.8272 32.2978 32.8167 32.2999 32.8042L31.5107 32.6729L30.7216 32.5415C30.7227 32.5352 30.7235 32.5308 30.7236 32.5301C30.7237 32.5297 30.7237 32.5297 30.7235 32.5307C30.7234 32.5312 30.7233 32.5317 30.7232 32.5325C30.723 32.5333 30.7228 32.5343 30.7226 32.5354C30.7218 32.5395 30.7201 32.5476 30.7184 32.5573C30.7166 32.5671 30.7143 32.5804 30.7121 32.5959L31.5039 32.71ZM31.5107 32.6729L32.3104 32.6498C32.3033 32.4032 32.4196 32.1548 32.6614 31.9968L32.2236 31.3271L31.7859 30.6575C31.0707 31.1251 30.6882 31.9022 30.7111 32.6959L31.5107 32.6729ZM32.2236 31.3271L32.6611 31.9969L38.6758 28.0682L38.2383 27.3984L37.8008 26.7287L31.7861 30.6574L32.2236 31.3271ZM38.2383 27.3984L38.6758 28.0682C38.7542 28.017 38.842 27.979 38.9374 27.9545L38.7383 27.1797L38.5391 26.4049C38.2864 26.4698 38.0357 26.5752 37.8008 26.7287L38.2383 27.3984ZM38.7383 27.1797L39.0271 27.9258C39.2949 27.8221 39.5885 27.7792 39.8904 27.8127L39.9785 27.0176L40.0667 26.2224C39.4995 26.1596 38.9478 26.2408 38.4495 26.4336L38.7383 27.1797Z" fill="#FFE9E9" mask="url(#path-11-outside-1_417_19611)"/>
</svg>
