<svg width="79" height="105" viewBox="0 0 79 105" fill="none" xmlns="http://www.w3.org/2000/svg">
<path d="M79 39.5C79 60.9837 56.6937 85.2504 40.2566 104.13C39.8557 104.59 39.1489 104.59 38.7506 104.128C23.6989 86.6379 0 60.9556 0 39.5C0 17.6848 17.6848 0 39.5 0C61.3152 0 79 17.6848 79 39.5Z" fill="#222222"/>
<circle cx="39.5" cy="39.5" r="33.5" fill="#E7F7FF"/>
<path d="M57 34.2293C57 33.5461 56.4461 32.9922 55.7629 32.9922H26.6043C23.5131 32.9922 21.7766 36.55 23.6785 38.987L39.9606 59.8501C40.195 60.1505 40.5548 60.3261 40.9359 60.3261H55.7629C56.4461 60.3261 57 59.7723 57 59.089V34.2293Z" fill="#4A70B1"/>
<circle cx="35.7012" cy="30.5179" r="1.23713" fill="#4A70B1"/>
<circle cx="36.9384" cy="26.8065" r="1.23713" fill="#4A70B1"/>
<circle cx="39.4127" cy="24.3323" r="1.23713" fill="#4A70B1"/>
<circle cx="41.8869" cy="20.6209" r="1.23713" fill="#4A70B1"/>
<circle cx="38.1755" cy="20.6209" r="1.23713" fill="#4A70B1"/>
<circle cx="34.4641" cy="23.095" r="1.23713" fill="#4A70B1"/>
<circle cx="31.9899" cy="26.8065" r="1.23713" fill="#4A70B1"/>
<circle cx="30.7528" cy="30.5179" r="1.23713" fill="#4A70B1"/>
<circle cx="43.1241" cy="25.5692" r="1.23713" fill="#4A70B1"/>
<circle cx="45.5983" cy="21.8577" r="1.23713" fill="#4A70B1"/>
<circle cx="45.5983" cy="28.0433" r="1.23713" fill="#4A70B1"/>
<circle cx="48.0726" cy="24.3323" r="1.23713" fill="#4A70B1"/>
<path d="M23.5 41H60.5" stroke="#E7F7FF" stroke-width="2" stroke-linecap="round"/>
</svg>
