<svg width="79" height="105" viewBox="0 0 79 105" fill="none" xmlns="http://www.w3.org/2000/svg">
<path d="M79 39.5C79 60.9837 56.6937 85.2504 40.2566 104.13C39.8557 104.59 39.1489 104.59 38.7506 104.128C23.6989 86.6379 0 60.9556 0 39.5C0 17.6848 17.6848 0 39.5 0C61.3152 0 79 17.6848 79 39.5Z" fill="#222222"/>
<circle cx="39.5" cy="39.5" r="33.5" fill="#EBFFF3"/>
<rect x="24" y="24" width="32" height="32" rx="4" stroke="#4AB172" stroke-width="4"/>
<path d="M42 29C42.5523 29 43 29.4477 43 30V37H50C50.5523 37 51 37.4477 51 38V42C51 42.5523 50.5523 43 50 43H43V50C43 50.5523 42.5523 51 42 51H38C37.4477 51 37 50.5523 37 50V43H30C29.4477 43 29 42.5523 29 42V38C29 37.4477 29.4477 37 30 37H37V30C37 29.4477 37.4477 29 38 29H42Z" fill="#4AB172"/>
</svg>
